<?xml version="1.0" encoding="UTF-8" standalone="no"?>
<svg
   xmlns:dc="http://purl.org/dc/elements/1.1/"
   xmlns:cc="http://creativecommons.org/ns#"
   xmlns:rdf="http://www.w3.org/1999/02/22-rdf-syntax-ns#"
   xmlns:svg="http://www.w3.org/2000/svg"
   xmlns="http://www.w3.org/2000/svg"
   xmlns:sodipodi="http://sodipodi.sourceforge.net/DTD/sodipodi-0.dtd"
   xmlns:inkscape="http://www.inkscape.org/namespaces/inkscape"
   viewBox="0 0 187.67 38.685001"
   fill="none"
   version="1.1"
   id="svg29"
   sodipodi:docname="moveit.svg"
   inkscape:version="1.0.1 (3bc2e813f5, 2020-09-07)">
  <metadata
     id="metadata33">
    <rdf:RDF>
      <cc:Work
         rdf:about="">
        <dc:format>image/svg+xml</dc:format>
        <dc:type
           rdf:resource="http://purl.org/dc/dcmitype/StillImage" />
        <dc:title></dc:title>
      </cc:Work>
    </rdf:RDF>
  </metadata>
  <sodipodi:namedview
     pagecolor="#ffffff"
     bordercolor="#666666"
     borderopacity="1"
     objecttolerance="10"
     gridtolerance="10"
     guidetolerance="10"
     inkscape:pageopacity="0"
     inkscape:pageshadow="2"
     inkscape:window-width="1920"
     inkscape:window-height="1027"
     id="namedview31"
     showgrid="false"
     inkscape:zoom="3.7561512"
     inkscape:cx="128.93265"
     inkscape:cy="28.790552"
     inkscape:window-x="1912"
     inkscape:window-y="-8"
     inkscape:window-maximized="1"
     inkscape:current-layer="g22" />
  <g
     clip-path="url(#clip0)"
     id="g22">
    <g
       id="g42"
       transform="translate(-62.3345,4.884533e-4)">
      <path
         d="m 107.307,22.0488 -3.622,16.6334 h -9.4366 l 3.6223,-16.6334 c 0.2839,-1.3074 0.1193,-1.5484 -1.2178,-1.5484 h -3.4066 c -1.3286,0 -1.6068,0.241 -1.8878,1.5151 0,0 0,0.0222 0,0.0333 l -3.6223,16.6334 h -9.4448 l 3.6252,-16.6334 c 0.2839,-1.3074 0.1192,-1.5484 -1.2207,-1.5484 h -3.4066 c -1.3399,0 -1.6096,0.2437 -1.8934,1.5484 L 71.7707,38.6822 H 62.3345 L 67.8957,13.149 h 7.6648 l 1.215,2.1938 c 0.699,-0.7181 1.545,-1.2845 2.4831,-1.6625 0.9381,-0.378 1.9472,-0.559 2.9618,-0.5313 h 1.9559 c 3.6905,0 6.1801,1.565 7.0715,4.2103 1.6493,-2.9417 4.0396,-4.2103 6.9267,-4.2103 h 1.9585 c 5.544,0 8.363,3.4929 7.174,8.8998 z"
         fill="#6e40c9"
         id="path2" />
      <path
         d="m 136.084,22.0487 -1.684,7.7337 c -1.178,5.4069 -5.521,8.8997 -11.071,8.8997 h -7.148 c -5.542,0 -8.361,-3.4956 -7.182,-8.9025 l 1.683,-7.7309 c 1.175,-5.4069 5.519,-8.8998 11.071,-8.8998 h 7.16 c 5.53,0 8.352,3.4929 7.171,8.8998 z m -9.445,0 c 0.284,-1.3074 0.119,-1.5484 -1.218,-1.5484 h -3.406 c -1.34,0 -1.61,0.2438 -1.894,1.5484 l -1.686,7.7309 c -0.284,1.3074 -0.117,1.5484 1.22,1.5484 h 3.407 c 1.337,0 1.61,-0.2438 1.894,-1.5484 z"
         fill="#6e40c9"
         id="path4" />
      <path
         d="m 194.975,20.0156 c -0.345,1.4514 -1.179,2.7483 -2.368,3.684 l -4.806,3.8779 c -1.152,0.9455 -2.602,1.4773 -4.107,1.5068 h -6.655 l -0.15,0.6842 c -0.284,1.3074 -0.119,1.5484 1.221,1.5484 h 14.398 l -1.601,7.3541 h -16.283 c -5.542,0 -8.361,-3.4956 -7.183,-8.9025 l 1.684,-7.7309 c 1.178,-5.4069 5.521,-8.8998 11.071,-8.8998 h 7.165 c 5.528,0.0111 8.386,3.3212 7.614,6.8778 z m -9.885,2.0331 c 0.284,-1.3074 0.12,-1.5484 -1.22,-1.5484 h -3.407 c -1.334,-0.0028 -1.618,0.2437 -1.902,1.5484 l -0.568,2.6619 h 5.621 c 0.252,-0.0102 0.494,-0.1004 0.689,-0.2569 0.194,-0.1565 0.331,-0.3707 0.39,-0.6101 z"
         fill="#6e40c9"
         id="path6" />
      <path
         d="m 205.583,34.3471 c -0.522,2.396 -2.461,4.3378 -5.393,4.3378 -2.933,0 -4.023,-1.939 -3.501,-4.3378 0.523,-2.3987 2.462,-4.3349 5.394,-4.3349 2.933,0 4.014,1.9362 3.5,4.3349 z"
         fill="#4cd62b"
         id="path8" />
      <path
         d="m 225.829,13.1489 -1.601,7.3486 -3.974,18.1819 h -9.434 l 3.975,-18.1819 h -4.71 l 1.604,-7.3514 z m -7.006,-4.76704 c -1.635,-1.77275 -1.136,-4.81414 1.11,-6.7891 2.245,-1.974957 5.394,-2.135613 7.037,-0.36009 1.644,1.77553 1.136,4.81691 -1.11,6.79187 -2.245,1.97496 -5.399,2.13566 -7.037,0.35732 z"
         fill="#6e40c9"
         id="path10" />
      <path
         d="m 240.972,16.8246 -2.822,12.955 c -0.284,1.3074 -0.119,1.5484 1.218,1.5484 h 5.868 l -1.601,7.3541 h -7.747 c -5.542,0 -8.363,-3.4956 -7.185,-8.9025 l 2.821,-12.955 h -3.568 l 1.601,-7.35416 h 3.577 l 1.312,-6.02183 h 9.444 l -1.311,6.02183 h 7.426 l -1.61,7.35416 z"
         fill="#6e40c9"
         id="path12" />
      <path
         d="m 171.027,13.1489 -17.496,25.5332 h -9.652 l -6.381,-25.5332 h 10.336 l 2.779,16.7664 10.078,-16.7525 z"
         fill="#6e40c9"
         id="path20" />
    </g>
  </g>
  <defs
     id="defs27">
    <clipPath
       id="clip0">
      <rect
         width="250"
         height="50"
         fill="#ffffff"
         id="rect24"
         x="0"
         y="0" />
    </clipPath>
  </defs>
</svg>
